# xmcd
#
# Track frame offsets: 
#        150
#        23779
#        47455
#        67231
#        89136
#        109358
#        128710
#        148211
#        168425
#        194200
#
# Disc length: 2865 seconds
#
# Revision: 4
# Processed by: cddbd v1.5.2PL0 Copyright (c) Steve Scherf et al.
# Submitted via: ExactAudioCopy v1.3
#
DISCID=9e0b2f0a
DTITLE=Iron Horse - Fade To Bluegrass, The Bluegrass Tribute To Metall
DTITLE=ica [CD1)
DYEAR=2003
DGENRE=Bluegrass
TTITLE0=Unforgiven
TTITLE1=Nothing Else Matters
TTITLE2=Enter Sandman
TTITLE3=Hero of the Day
TTITLE4=Fade to Black
TTITLE5=One
TTITLE6=Ride the Lightning
TTITLE7=Wherever I May Roam
TTITLE8=Fuel
TTITLE9=The Four Horsemen
EXTD=its a metallica tribute album, Brian
EXTT0=
EXTT1=
EXTT2=
EXTT3=
EXTT4=
EXTT5=
EXTT6=
EXTT7=
EXTT8=
EXTT9=
PLAYORDER=
